<mxfile host="app.diagrams.net" modified="2023-11-20T07:59:58.091Z" agent="Mozilla/5.0 (Windows NT 10.0; Win64; x64) AppleWebKit/537.36 (KHTML, like Gecko) Chrome/119.0.0.0 Safari/537.36 Edg/119.0.0.0" etag="a7Lw9MJiRgBQbDF3V4LU" version="22.1.3" type="github">
  <diagram name="第 1 页" id="gxCBcEPMdZptHfwL2WzL">
    <mxGraphModel dx="1339" dy="759" grid="1" gridSize="10" guides="1" tooltips="1" connect="1" arrows="1" fold="1" page="1" pageScale="1" pageWidth="1200" pageHeight="1920" math="0" shadow="0">
      <root>
        <mxCell id="0" />
        <mxCell id="1" parent="0" />
        <mxCell id="syWYBdlL9ScPO5KDvKmx-3" value="" style="edgeStyle=orthogonalEdgeStyle;rounded=0;orthogonalLoop=1;jettySize=auto;html=1;shape=flexArrow;fillColor=#dae8fc;strokeColor=#6c8ebf;" edge="1" parent="1" source="syWYBdlL9ScPO5KDvKmx-1" target="syWYBdlL9ScPO5KDvKmx-2">
          <mxGeometry relative="1" as="geometry">
            <Array as="points">
              <mxPoint x="570" y="370" />
              <mxPoint x="570" y="370" />
            </Array>
          </mxGeometry>
        </mxCell>
        <object label="" name="中台" id="syWYBdlL9ScPO5KDvKmx-1">
          <mxCell style="verticalLabelPosition=bottom;verticalAlign=top;html=1;shape=mxgraph.basic.rect;fillColor2=none;strokeWidth=1;size=20;indent=5;fillColor=#3399FF;" vertex="1" parent="1">
            <mxGeometry x="510" y="265" width="120" height="80" as="geometry" />
          </mxCell>
        </object>
        <mxCell id="syWYBdlL9ScPO5KDvKmx-2" value="" style="whiteSpace=wrap;html=1;verticalAlign=top;fillColor=#3399FF;strokeWidth=1;" vertex="1" parent="1">
          <mxGeometry x="510" y="450" width="120" height="60" as="geometry" />
        </mxCell>
        <mxCell id="syWYBdlL9ScPO5KDvKmx-6" value="&lt;b&gt;业务中台&lt;/b&gt;" style="text;html=1;strokeColor=none;fillColor=none;align=center;verticalAlign=middle;whiteSpace=wrap;rounded=0;" vertex="1" parent="1">
          <mxGeometry x="540" y="315" width="60" height="30" as="geometry" />
        </mxCell>
        <mxCell id="syWYBdlL9ScPO5KDvKmx-7" value="&lt;h1&gt;Heading&lt;/h1&gt;&lt;p&gt;逻辑上来说&lt;/p&gt;" style="text;html=1;strokeColor=#d6b656;fillColor=#fff2cc;spacing=5;spacingTop=-20;whiteSpace=wrap;overflow=hidden;rounded=0;" vertex="1" parent="1">
          <mxGeometry x="280" y="315" width="190" height="120" as="geometry" />
        </mxCell>
      </root>
    </mxGraphModel>
  </diagram>
</mxfile>
